HIERARCHY
ROOT Hips
{
	OFFSET -14.64140 90.27770 -84.91600
	CHANNELS 6 Xposition Yposition Zposition Zrotation Xrotation Yrotation
	JOINT Spine
	{
		OFFSET 0.00000 13.20850 -1.60436
		CHANNELS 3 Zrotation Xrotation Yrotation
		JOINT Spine1
		{
			OFFSET 0.00000 8.61716 0.00000
			CHANNELS 3 Zrotation Xrotation Yrotation
			JOINT Spine2
			{
				OFFSET 0.00000 8.61717 0.00000
				CHANNELS 3 Zrotation Xrotation Yrotation
				JOINT Spine3
				{
					OFFSET 0.00000 8.61717 0.00000
					CHANNELS 3 Zrotation Xrotation Yrotation
					JOINT Neck
					{
						OFFSET 0.00000 11.07920 1.10792
						CHANNELS 3 Zrotation Xrotation Yrotation
						JOINT Neck1
						{
							OFFSET 0.00000 7.08032 0.00000
							CHANNELS 3 Zrotation Xrotation Yrotation
							JOINT Head
							{
								OFFSET 0.00000 7.08031 0.00000
								CHANNELS 3 Zrotation Xrotation Yrotation
								End site
								{
									OFFSET 0.00000 0.00000 0.00000
								}
							}
						}
					}
					JOINT RightShoulder
					{
						OFFSET -0.01000 7.91373 5.19711
						CHANNELS 3 Zrotation Xrotation Yrotation
						JOINT RightArm
						{
							OFFSET -18.41580 0.00000 0.00000
							CHANNELS 3 Zrotation Xrotation Yrotation
							JOINT RightForeArm
							{
								OFFSET -29.11090 0.00000 0.00000
								CHANNELS 3 Zrotation Xrotation Yrotation
								JOINT RightHand
								{
									OFFSET -24.65040 0.00000 0.00000
									CHANNELS 3 Zrotation Xrotation Yrotation
									JOINT RightHandThumb1
									{
										OFFSET -5.35114 -0.85590 3.97906
										CHANNELS 3 Zrotation Xrotation Yrotation
										JOINT RightHandThumb2
										{
											OFFSET -4.52789 0.00000 0.00000
											CHANNELS 3 Zrotation Xrotation Yrotation
											JOINT RightHandThumb3
											{
												OFFSET -2.46976 0.00000 0.00000
												CHANNELS 3 Zrotation Xrotation Yrotation
												End site
												{
													OFFSET 0.00000 0.00000 0.00000
												}
											}
										}
									}
									JOINT RightHandIndex1
									{
										OFFSET -14.26970 0.00000 2.88139
										CHANNELS 3 Zrotation Xrotation Yrotation
										JOINT RightHandIndex2
										{
											OFFSET -5.48836 0.00000 0.00000
											CHANNELS 3 Zrotation Xrotation Yrotation
											JOINT RightHandIndex3
											{
												OFFSET -3.01859 0.00000 0.00000
												CHANNELS 3 Zrotation Xrotation Yrotation
												End site
												{
													OFFSET 0.00000 0.00000 0.00000
												}
											}
										}
									}
									JOINT RightHandMiddle1
									{
										OFFSET -14.26970 0.00000 -0.09147
										CHANNELS 3 Zrotation Xrotation Yrotation
										JOINT RightHandMiddle2
										{
											OFFSET -6.17441 0.00000 0.00000
											CHANNELS 3 Zrotation Xrotation Yrotation
											JOINT RightHandMiddle3
											{
												OFFSET -3.56743 0.00000 0.00000
												CHANNELS 3 Zrotation Xrotation Yrotation
												End site
												{
													OFFSET 0.00000 0.00000 0.00000
												}
											}
										}
									}
									JOINT RightHandRing1
									{
										OFFSET -12.69180 0.00000 -3.06433
										CHANNELS 3 Zrotation Xrotation Yrotation
										JOINT RightHandRing2
										{
											OFFSET -5.62556 0.00000 0.00000
											CHANNELS 3 Zrotation Xrotation Yrotation
											JOINT RightHandRing3
											{
												OFFSET -3.56744 0.00000 0.00000
												CHANNELS 3 Zrotation Xrotation Yrotation
												End site
												{
													OFFSET 0.00000 0.00000 0.00000
												}
											}
										}
									}
									JOINT RightHandPinky1
									{
										OFFSET -11.11390 0.00000 -6.03719
										CHANNELS 3 Zrotation Xrotation Yrotation
										JOINT RightHandPinky2
										{
											OFFSET -4.52789 0.00000 0.00000
											CHANNELS 3 Zrotation Xrotation Yrotation
											JOINT RightHandPinky3
											{
												OFFSET -2.46976 0.00000 0.00000
												CHANNELS 3 Zrotation Xrotation Yrotation
												End site
												{
													OFFSET 0.00000 0.00000 0.00000
												}
											}
										}
									}
								}
							}
						}
					}
					JOINT LeftShoulder
					{
						OFFSET 0.01000 7.91373 5.19711
						CHANNELS 3 Zrotation Xrotation Yrotation
						JOINT LeftArm
						{
							OFFSET 18.41580 0.00000 0.00000
							CHANNELS 3 Zrotation Xrotation Yrotation
							JOINT LeftForeArm
							{
								OFFSET 29.11090 0.00000 0.00000
								CHANNELS 3 Zrotation Xrotation Yrotation
								JOINT LeftHand
								{
									OFFSET 24.65040 0.00000 0.00000
									CHANNELS 3 Zrotation Xrotation Yrotation
									JOINT LeftHandThumb1
									{
										OFFSET 5.35114 -0.85590 3.97906
										CHANNELS 3 Zrotation Xrotation Yrotation
										JOINT LeftHandThumb2
										{
											OFFSET 4.52789 0.00000 0.00000
											CHANNELS 3 Zrotation Xrotation Yrotation
											JOINT LeftHandThumb3
											{
												OFFSET 2.46977 0.00000 0.00000
												CHANNELS 3 Zrotation Xrotation Yrotation
												End site
												{
													OFFSET 0.00000 0.00000 0.00000
												}
											}
										}
									}
									JOINT LeftHandIndex1
									{
										OFFSET 14.26970 0.00000 2.88139
										CHANNELS 3 Zrotation Xrotation Yrotation
										JOINT LeftHandIndex2
										{
											OFFSET 5.48836 0.00000 0.00000
											CHANNELS 3 Zrotation Xrotation Yrotation
											JOINT LeftHandIndex3
											{
												OFFSET 3.01859 0.00000 0.00000
												CHANNELS 3 Zrotation Xrotation Yrotation
												End site
												{
													OFFSET 0.00000 0.00000 0.00000
												}
											}
										}
									}
									JOINT LeftHandMiddle1
									{
										OFFSET 14.26970 0.00000 -0.09147
										CHANNELS 3 Zrotation Xrotation Yrotation
										JOINT LeftHandMiddle2
										{
											OFFSET 6.17440 0.00000 0.00000
											CHANNELS 3 Zrotation Xrotation Yrotation
											JOINT LeftHandMiddle3
											{
												OFFSET 3.56744 0.00000 0.00000
												CHANNELS 3 Zrotation Xrotation Yrotation
												End site
												{
													OFFSET 0.00000 0.00000 0.00000
												}
											}
										}
									}
									JOINT LeftHandRing1
									{
										OFFSET 12.69180 0.00000 -3.06433
										CHANNELS 3 Zrotation Xrotation Yrotation
										JOINT LeftHandRing2
										{
											OFFSET 5.62556 0.00000 0.00000
											CHANNELS 3 Zrotation Xrotation Yrotation
											JOINT LeftHandRing3
											{
												OFFSET 3.56744 0.00000 0.00000
												CHANNELS 3 Zrotation Xrotation Yrotation
												End site
												{
													OFFSET 0.00000 0.00000 0.00000
												}
											}
										}
									}
									JOINT LeftHandPinky1
									{
										OFFSET 11.11390 0.00000 -6.03719
										CHANNELS 3 Zrotation Xrotation Yrotation
										JOINT LeftHandPinky2
										{
											OFFSET 4.52789 0.00000 0.00000
											CHANNELS 3 Zrotation Xrotation Yrotation
											JOINT LeftHandPinky3
											{
												OFFSET 2.46976 0.00000 0.00000
												CHANNELS 3 Zrotation Xrotation Yrotation
												End site
												{
													OFFSET 0.00000 0.00000 0.00000
												}
											}
										}
									}
								}
							}
						}
					}
					JOINT pCube4
					{
						OFFSET 0.00000 10.91090 1.10792
						CHANNELS 3 Zrotation Xrotation Yrotation
						End site
						{
							OFFSET 0.00000 0.00000 0.00000
						}
					}
				}
			}
		}
	}
	JOINT RightUpLeg
	{
		OFFSET -9.98441 0.00000 0.00000
		CHANNELS 3 Zrotation Xrotation Yrotation
		JOINT RightLeg
		{
			OFFSET 0.00000 -42.11790 0.00000
			CHANNELS 3 Zrotation Xrotation Yrotation
			JOINT RightFoot
			{
				OFFSET 0.00000 -45.00020 -0.00001
				CHANNELS 3 Zrotation Xrotation Yrotation
				JOINT RightForeFoot
				{
					OFFSET 0.00000 -3.74820 0.00000
					CHANNELS 3 Zrotation Xrotation Yrotation
					JOINT RightToeBase
					{
						OFFSET 0.00000 0.06325 14.43120
						CHANNELS 3 Zrotation Xrotation Yrotation
						End site
						{
							OFFSET 0.00000 0.00000 0.00000
						}
					}
				}
			}
		}
	}
	JOINT LeftUpLeg
	{
		OFFSET 9.98441 0.00000 0.00000
		CHANNELS 3 Zrotation Xrotation Yrotation
		JOINT LeftLeg
		{
			OFFSET 0.00000 -42.11800 0.00000
			CHANNELS 3 Zrotation Xrotation Yrotation
			JOINT LeftFoot
			{
				OFFSET 0.00000 -45.00070 0.00000
				CHANNELS 3 Zrotation Xrotation Yrotation
				JOINT LeftForeFoot
				{
					OFFSET 0.00000 -3.74824 0.00000
					CHANNELS 3 Zrotation Xrotation Yrotation
					JOINT LeftToeBase
					{
						OFFSET 0.00000 0.06325 14.43110
						CHANNELS 3 Zrotation Xrotation Yrotation
						End site
						{
							OFFSET 0.00000 0.00000 0.00000
						}
					}
				}
			}
		}
	}
}
MOTION
Frames: 4
Frame Time: 0.050000
-0.049474308366972496 0.037930284968296424 -0.0031416856685398905 -0.028593885000720787 0.005949765841233131 0.016076592935801697 0.38153791456287295 1.5019841013472208 -1.4073401939989953 -0.4873779670310709 3.786804386272917 0.30901695505941484 -0.6894338924181744 -1.6519582702002142 0.7564967576901814 -0.900424342336901 -0.5216367759786427 -0.410324440304366 -0.3468923454182069 12.886840851513355 0.22595802470551152 0.6903544938079298 -0.6244361674688079 -0.0076781208039004845 0.7618607279526078 -16.188731171430994 -0.0715216290779312 -2.7453715093253166 1.4233373916659895 -15.33738050508609 72.3586023065512 14.723566980878372 5.228179451867396 13.278122245527136 5.626413344999222 89.46188415888138 23.64320871121574 -0.3142856085710992 -5.028582516289288 4.558632088943712 -0.09145317780921111 -1.6355845375007911 0.038232292689804666 -0.03466115995100495 -56.27514113453148 0.039411300095617545 -0.030326320047558326 -56.20416122192751 -38.77102342711362 -0.02944673816835234 0.005790655882029548 -0.029865619386923753 -0.007139848278315064 0.04454046499247464 0.024237099992845113 -0.020337933705079997 0.03019289857187804 -36.69501216369455 0.025410160812207296 0.01984587782025655 0.02243447021048389 0.041566825725025534 -0.03763299526445013 0.020998239094189634 -0.03417006787726152 0.042952823050899494 -19.744266863381736 -0.04994589728111566 0.004163701836997053 0.04314946042953069 0.03480694085425777 -0.004039293843674432 0.0037991957723441166 0.039565858558040484 -0.005069290673864761 24.078606770505928 0.01832858684952844 0.029571101979552497 28.829916671149398 0.04126697142042673 0.015378787274761736 28.868502499680606 -0.015546823215457167 0.0389292039016622 5.552409147321346 1.5238923562280744 14.10051500947896 -76.8736215183177 26.53385228042901 -8.499827021411427 -58.930893121619555 15.561124058450428 -103.45486179727068 -21.299794723538188 0.5477562564345144 0.9914915897518244 -0.4630708242843442 0.08477318664832062 -8.169389683049506 -0.009382529433423024 0.03496425630817179 44.59866306890172 -0.008946407134768996 0.02479634618537979 44.60712376284619 12.47292281434923 0.009717046144739467 -0.015416979316704977 -0.011969028127346149 0.006083519823501904 -0.032989115432018094 -0.021006107730472446 0.04838146915239797 0.019154278372112785 11.079298349216945 0.0029647839908256567 -0.02043931995494915 0.011029196531132306 0.028201792833168312 -0.014729641395422863 0.03546935317650705 0.045524804143744386 0.006107825981008253 4.780715174942854 0.0018874929874424804 0.04473835794640689 -0.027030204329368528 -0.0477012802181135 0.017599988482124757 0.03188810301969843 0.038850731778284076 -0.001867225820962434 -5.588478424859405 0.037704836145534215 0.012141556026306663 -6.678378218896284 0.03572288749983724 0.008631032368797155 -6.697396105804868 0.039012006609485506 0.03447720130371688 -0.03706124936781979 0.018394341646605555 -0.040666943784055394 8.072135964413937 3.4561304036789378 -19.26059802286175 0.01657564437911641 10.35331147031834 0.04468677094361541 -5.668677783052145 -15.671205910576935 3.229350468220232 0.028614065612504097 -0.00029951761842717905 0.00115000541260472 -0.010861743229755355 4.7215988218281035 -0.017661451694064814 12.43727729184645 -8.218244226788077 6.8805047700509405 0.0006482788049345171 46.375874929767285 -0.004579875491681918 -4.307107488689258 -14.780768340564586 -3.7917085604808163 -0.015093139699537635 -0.008206257461770389 -0.028926760695575152 0.037928835970134064 -10.726762127706788 0.020605307259681918 
0.010077699372885544 -0.02948664553678845 0.02091730308329423 -0.03855211128363922 0.02124053898129221 0.0072653084888940666 0.01614534248612099 1.3997823006928674 -1.3609935493434846 -0.5307221816175821 3.8692806171065017 0.3364674202084158 -0.743272982685125 -1.7054889362535772 0.6794755907743876 -0.8516633341613904 -0.4786136073808789 -0.38288692654368006 -0.3668999088953496 13.001614016960513 0.25331088522873385 0.6999934926136833 -0.6189939480156114 0.11239717866753396 0.7572435767163193 -16.1348831588075 -0.037535879441427805 -2.243107022396728 1.2965100795253242 -15.258188563785787 71.98397445741435 14.969792318110223 5.115044161229477 12.485724784623466 6.101332423272709 87.58578333679925 24.03200373411515 -0.2815040271616715 -4.655101285595563 4.534419628752551 -0.1523980958853641 -1.5988578827602422 0.008920088559647899 -0.032890050231166125 -56.26375074588819 -0.02329846075611307 0.015609351535813894 -56.22179497292876 -38.81113053056076 0.021320647505655394 -0.012315345741335016 -0.02269230854909138 -0.04866434544222938 -0.006906656559962088 -0.04398848482420489 0.007216274477041865 -0.016238487837022683 -36.72883425797514 -0.0008529785657708573 -0.03981912951424725 -0.01012150514314516 -0.013339003674983875 0.019136162743028963 0.01229502792435791 -0.033925486241731896 0.028097736970581898 -19.7819595351055 0.013018931958850162 0.02488940131834863 0.013015712922644964 -0.034149536691679944 0.03730952627773537 0.029196102345907478 0.026445608059835656 0.045912891963221604 24.04913439702069 0.0013851852305639628 -0.01346666217500346 28.81809208990425 -0.013693663514603572 0.012836352239823812 28.870536787688366 0.047436394816221125 0.03346855212021765 5.234485134281512 1.4502025335219626 14.208216005898251 -76.92305344999151 26.914813678523842 -8.767383820795528 -55.64104594885143 14.588558808071493 -102.64291555909037 -21.18261915374467 0.8883397731288873 0.7805710222102948 -0.4280090413726969 0.08494283565281446 -8.121858649730619 -0.02118449754697004 0.02385058474432643 44.611311458267394 0.02756687285170885 -0.030696735590410227 44.6137862958644 12.494847528529352 -0.023842642837052203 -0.02434828080373164 0.022548859208024213 -0.02329414614893443 -0.021566380439079182 0.0180047862064942 0.028781397166869067 -0.026185858550468222 11.14449104038329 -0.017957588398766548 -0.017003218536925078 0.04301267286197448 -0.008251837251475387 -0.04264717843839181 -0.00517178607636382 -0.01581864563617184 -0.04010520442574048 4.7583411472970125 0.03726892258665884 0.024260404076386802 0.013635810538495611 0.025523284752843503 -0.0033564168593057803 -0.025092986176460937 -0.013717729967819503 -0.019903089479050035 -5.563904564054075 -0.023328088454652195 0.025208133159890563 -6.742744569319161 -0.02417399960318171 -0.01816505334893149 -6.725963189378008 -0.007116266067141402 -0.036186219956818984 -0.023886984903084274 0.017034186780805687 0.030934378291002547 8.031116048875521 3.5080471003217077 -19.22218779291336 -0.04527862323773836 10.352893302414214 0.011756009361515251 -5.652651212670528 -15.636838455935738 3.1690604327807415 0.04750791729358425 0.040370620170686405 -0.017663859911374376 0.024499017791319435 4.687099408130771 0.04665638933761079 12.446706198586963 -8.256386509375517 6.853234887571341 0.031054756182370323 46.39572985525483 0.024977387530448123 -4.301184657882648 -14.716967717253326 -3.836939173817102 -0.04201974541230112 -0.012071694457712109 0.02596469836887334 0.02468192878874244 -10.709332360406405 0.01755145291082245 
-0.0237463368656644 0.01185012515365713 0.04380175212020736 0.017731985100253506 0.038903985079978304 -0.030103336692955753 -0.4422215216317393 1.4464333089398453 -1.208703421438815 -0.5255217428387912 3.9077314618619026 0.34459017930888197 -0.6969812052836597 -1.6689557132216926 0.6668420063282969 -0.8653286480877888 -0.5354576423669639 -0.4537366787423553 -0.45567404324327726 13.227026616867736 0.36523242171256726 0.6841796656838207 -0.641276665916082 0.2232567131876427 0.7975817449364767 -16.23059595821318 -0.010969696710459182 -1.7903065242254452 1.087230885497171 -15.16962692669005 71.43668317622293 14.267292005023542 5.296940954935533 12.34254833000516 7.0107424520489054 85.0764902252927 24.69942252035015 -0.3153461112466278 -4.240627632380907 4.479616083561084 -0.16782880012105375 -1.5767818099312687 0.004140029542493726 -0.010768188015893772 -56.263194157573565 0.0011161961492098357 -0.032522717767550405 -56.21102605478326 -38.76177729374017 0.005372635148432763 0.027990667182319538 0.0341573812105408 0.022566855430095286 0.029314139598098983 -0.017387335408195304 0.012507952549368376 -0.03068628250574438 -36.69550334302423 0.015417117272600764 -0.007241211673315916 -0.02802004603568407 0.040946308603750856 -0.01750083877016922 0.01782072170175108 -0.029953077038984643 -0.012481462721083827 -19.752310921297013 -0.03693781056553724 -0.021506336454058462 -0.04871802536857192 -0.0392723045190875 -0.017578314724208927 -0.02156278221694543 0.02952047049208174 0.02154590069869546 24.029362492060702 -0.029073944699194446 -0.021200236298676737 28.877308275458653 0.043753218346367646 -0.04101732609173629 28.87890840360367 -0.014569662062671846 -0.04594624895721317 4.902864825389583 1.4488473330751341 14.147652318910346 -76.70818501824539 26.90339155411001 -9.281406476058121 -51.73415049539033 13.600008812976814 -101.80421826428258 -21.16150433864461 1.7346670547720864 0.2069529277464332 -0.4845702672965761 0.05557331788229051 -8.106375098381292 -0.016276424242587503 0.006567920600170006 44.602393005169404 -0.023791137761883227 -0.0319345257142995 44.60075034161062 12.470977908453767 -0.021127393742353683 0.037132673169343204 -0.041982324531843446 0.008016198991222438 -0.007400022590792582 -0.03989066938646811 0.016799745105391475 -0.004285357185205854 11.08788632564785 0.00683914105195984 0.049251762142671046 -0.03177033255589825 -0.009123254578338996 0.0024685906621758156 0.0434978199465964 0.015095128963360436 0.021948794460180946 4.738661658422294 -0.0019315465055473524 0.020146010075822795 -0.028960155840405608 0.010317348635013922 0.040174837439598834 0.04445706818511456 0.04189221076702045 0.006126744609004778 -5.615473814750733 0.014056550817857316 0.024910660821803005 -6.737749229204493 -0.04156052402198809 -0.021041675214290387 -6.7705077256020365 -0.01799614654583375 -0.026143580514039644 0.04340192619584324 -0.03028134645034795 0.03697136764470396 8.092793199909368 3.474794251130461 -19.177044195747886 0.011546108023828026 10.359677431194745 0.030435500425416855 -5.648113858978557 -15.69225966166938 3.203566337906192 -0.006507244393068143 -0.005033957407662864 -0.02038452310209734 0.006300331167979209 4.688451957984151 -0.025359306651515985 12.454484554517105 -8.27437701676232 6.917134724296478 -0.026248607118203586 46.38862381457735 0.04216017997409284 -4.369755771566792 -14.731416112278513 -3.7917457856818015 0.026659986692389715 -0.007663355213770227 0.022747540249965243 0.039128086936690856 -10.72029173053508 0.015028044536375016 
-0.02561727680822455 0.029105542792694408 0.007060296412723247 0.014852041821911325 0.015977629568784867 0.02907711861388125 -0.6624400017957263 1.4411140881697388 -1.2223727006617942 -0.487778759371638 4.004634513908473 0.33150847443342696 -0.6918893949133802 -1.7467624063236624 0.5287178064111587 -0.8733247146078482 -0.49681853899418466 -0.48018057547492543 -0.43946170778455207 13.416798646836678 0.35747794476516964 0.6890067142402969 -0.7276701968671967 0.33385269694049247 0.7656947747648948 -16.31287705122849 0.01439624087554068 -1.7022644455527949 1.0470766712683526 -15.231013248417993 71.28530636531588 12.45012590318199 5.553278978388933 12.183730564855141 8.31584191239339 82.39033147255431 25.054028000265188 -0.25616045208152427 -3.5967074675609987 4.512826481172854 -0.10061529808141004 -1.620785567049424 0.03054698445252743 -0.020944394470552505 -56.19323190752 0.0005036630812118062 0.007477428915328039 -56.20536554733532 -38.736240149213685 0.048867012314370364 0.03171197724504333 -0.03650288938582645 -0.027087051255702543 -0.04744510223130083 0.03733177661882817 0.016983776605878416 -0.04834032152645368 -36.71391665346805 -0.01112757272852297 -0.009243925631239294 0.029316566564371725 0.016859727298348448 0.02170300543239565 0.008217751151077899 0.04286931425276817 -0.02758531496733836 -19.75820638514387 0.019740884683107 0.007009316750582926 -0.010552240363590513 -0.008658274978569767 -0.02835726644407137 0.019098774899297444 0.008684344849565071 -0.009867513965158423 24.070693782275825 0.02007862843353093 0.04486635732249383 28.83774144888758 -0.006137439693204252 -0.03675397543893256 28.856108168143447 -0.012755829133330033 0.020414287931261207 4.92631138764971 1.4526462172210304 14.20760866759678 -76.6244812060891 26.84422686373696 -9.91499075220393 -47.463986681639796 12.523718128179244 -100.95186046898974 -21.062472783038245 2.329379263133228 -0.2730214699280391 -0.4606262731972198 0.07759500759585083 -8.104474392629152 0.0002323935593714973 0.01211268877669269 44.572539894158005 -0.016811029222714494 0.04273280022184377 44.59561576167173 12.460314812079083 0.01502486291646115 -0.01529931253177479 -0.007179013270310633 0.0344741588241219 -0.015314870765668022 -0.034268755584151635 0.026184891439320804 0.03485178154092592 11.136414824861188 -0.022882969867604342 0.022987517376974943 0.004310217450679928 -0.034692112796218366 0.009515651851114408 -0.0067062896568136745 -0.039718893150215345 -0.032826532506040444 4.768874524788828 -0.033626270802962474 -0.03366136523482163 -0.02340194331760084 0.0188923640065307 0.047752160674724084 0.04004966599053733 0.048545037648259376 0.005588274759957227 -5.552423557214391 -0.01958635949225786 0.04246585656322066 -6.761613837025126 0.026018580034036416 -0.0425740883941573 -6.753357557189936 -0.048669656720744615 0.04246146151995123 0.011149396230172685 -0.020535252376123612 -0.0009054949869314019 8.052995255591993 3.457092027146458 -19.23578454136912 -0.023870714537620474 10.434811066124965 -0.023095397547960205 -5.63729716740282 -15.627175094681233 3.1657738727676907 -0.0440825768689273 0.016757225362960204 0.0007463985844598929 0.04380867761013746 4.690712579025241 0.01777311840588019 12.486846208752995 -8.230829481008028 6.870972775814225 -0.013122246651177514 46.35548865369561 -0.02382436165173342 -4.300653719549936 -14.70950219574222 -3.799211052887916 -0.03100679907051637 -0.011442719729445352 0.022085240157265117 0.049504338904307506 -10.791299583321097 0.003631317813413604 
